<svg width="880" height="680" viewBox="0 0 880 680" fill="none" xmlns="http://www.w3.org/2000/svg" role="img" aria-labelledby="heroTitle heroDesc">
  <title id="heroTitle">Financial growth illustration</title>
  <desc id="heroDesc">Stylised shapes representing community banking and savings growth.</desc>
  <defs>
    <linearGradient id="heroGradientA" x1="120" y1="40" x2="780" y2="640" gradientUnits="userSpaceOnUse">
      <stop offset="0%" stop-color="rgba(17,134,58,0.25)"/>
      <stop offset="100%" stop-color="rgba(78,47,138,0.25)"/>
    </linearGradient>
    <linearGradient id="heroGradientB" x1="0" y1="0" x2="1" y2="1">
      <stop offset="0%" stop-color="#4E8A2F"/>
      <stop offset="100%" stop-color="#1A5C3A"/>
    </linearGradient>
    <linearGradient id="heroGradientC" x1="0" y1="0" x2="1" y2="1">
      <stop offset="0%" stop-color="#8F6AE5"/>
      <stop offset="100%" stop-color="#5137B0"/>
    </linearGradient>
    <clipPath id="heroClip">
      <path d="M0 160C0 71.6344 71.6344 0 160 0H720C808.366 0 880 71.6344 880 160V520C880 608.366 808.366 680 720 680H160C71.6344 680 0 608.366 0 520V160Z"/>
    </clipPath>
  </defs>
  <g clip-path="url(#heroClip)">
    <rect x="-40" y="-40" width="960" height="760" fill="url(#heroGradientA)"/>
    <circle cx="720" cy="120" r="120" fill="rgba(78,47,138,0.2)" />
    <circle cx="120" cy="540" r="160" fill="rgba(17,134,58,0.18)" />
    <g opacity="0.6">
      <path d="M140 520C210 440 340 420 420 480C500 540 640 520 720 420" stroke="url(#heroGradientB)" stroke-width="36" stroke-linecap="round" stroke-linejoin="round" fill="none"/>
      <path d="M180 500C240 420 360 400 440 450C520 500 660 500 740 420" stroke="rgba(255,255,255,0.25)" stroke-width="12" stroke-linecap="round" stroke-linejoin="round" fill="none"/>
    </g>
    <g opacity="0.8">
      <rect x="300" y="260" width="120" height="220" rx="28" fill="rgba(255,255,255,0.9)"/>
      <rect x="460" y="220" width="140" height="260" rx="30" fill="rgba(255,255,255,0.7)"/>
      <rect x="630" y="300" width="100" height="200" rx="24" fill="rgba(255,255,255,0.5)"/>
      <circle cx="360" cy="240" r="30" fill="url(#heroGradientB)"/>
      <circle cx="520" cy="190" r="36" fill="url(#heroGradientC)"/>
      <circle cx="670" cy="260" r="28" fill="#F2D024" opacity="0.8"/>
    </g>
  </g>
</svg>
