<svg width="96" height="96" viewBox="0 0 96 96" fill="none" xmlns="http://www.w3.org/2000/svg" role="img" aria-labelledby="depositTitle">
  <title id="depositTitle">Deposit illustration</title>
  <rect x="8" y="16" width="80" height="64" rx="16" fill="rgba(17,134,58,0.12)"/>
  <path d="M24 44C24 36.268 30.268 30 38 30H58C65.732 30 72 36.268 72 44V60C72 67.732 65.732 74 58 74H38C30.268 74 24 67.732 24 60V44Z" fill="#0F7432" opacity="0.8"/>
  <path d="M34 44.5C34 39.8056 37.8056 36 42.5 36H53.5C58.1944 36 62 39.8056 62 44.5V59.5C62 64.1944 58.1944 68 53.5 68H42.5C37.8056 68 34 64.1944 34 59.5V44.5Z" fill="white"/>
  <path d="M48 40V64" stroke="#0F7432" stroke-width="3" stroke-linecap="round"/>
  <path d="M40 52H56" stroke="#4E2F8A" stroke-width="3" stroke-linecap="round"/>
</svg>
